<svg height="56.693" viewBox="0 0 56.693 56.693" width="56.693" xmlns="http://www.w3.org/2000/svg"><path d="M41.777 30.517c-.062-6.232 5.082-9.22 5.312-9.372-2.892-4.227-7.396-4.807-9-4.873-3.83-.39-7.476 2.256-9.42 2.256-1.938 0-4.94-2.2-8.116-2.143-4.178.062-8.03 2.43-10.18 6.17-4.338 7.527-1.11 18.682 3.12 24.79 2.066 2.987 4.53 6.347 7.765 6.224 3.116-.124 4.292-2.017 8.06-2.017s4.826 2.016 8.123 1.953c3.352-.06 5.477-3.043 7.527-6.04 2.373-3.47 3.35-6.83 3.408-7-.073-.033-6.534-2.508-6.6-9.95zM35.582 12.23c1.715-2.083 2.877-4.976 2.56-7.856-2.474.1-5.47 1.645-7.247 3.725-1.592 1.845-2.984 4.784-2.61 7.612 2.76.214 5.576-1.405 7.297-3.483z"/></svg>