<?xml version="1.0" ?><svg height="100" id="svg2" style="enable-background:new" version="1.1" viewBox="0 0 100 100" width="100" xmlns="http://www.w3.org/2000/svg" xmlns:cc="http://creativecommons.org/ns#" xmlns:dc="http://purl.org/dc/elements/1.1/" xmlns:inkscape="http://www.inkscape.org/namespaces/inkscape" xmlns:rdf="http://www.w3.org/1999/02/22-rdf-syntax-ns#" xmlns:sodipodi="http://sodipodi.sourceforge.net/DTD/sodipodi-0.dtd" xmlns:svg="http://www.w3.org/2000/svg" xmlns:xlink="http://www.w3.org/1999/xlink"><defs id="defs4"><linearGradient id="linearGradient4398"><stop id="stop4400" offset="0" style="stop-color:#ffe22d;stop-opacity:1"/><stop id="stop4402" offset="1" style="stop-color:#fcd3f7;stop-opacity:1"/></linearGradient><clipPath clipPathUnits="userSpaceOnUse" id="clipPath4383"><path d="m 137.06914,104.55026 c -4.67344,8.09465 -9.07198,8.09465 -13.74543,0 -4.67345,-8.094646 -2.47418,-11.903892 6.87272,-11.903892 9.34689,0 11.54616,3.809247 6.87271,11.903892 z" id="path4385" style="opacity:1;fill:#e8273c;fill-opacity:1;fill-rule:nonzero;stroke:none;stroke-width:2;stroke-linecap:round;stroke-linejoin:round;stroke-miterlimit:4;stroke-dasharray:none;stroke-opacity:1" transform="matrix(1.0275292,0,0,1.168297,-3.8978949,-18.617223)"/></clipPath><clipPath clipPathUnits="userSpaceOnUse" id="clipPath4248"><g id="g4250"><ellipse cx="150.06837" cy="-16.3678" id="ellipse4252" rx="17.036831" ry="21.868845" style="opacity:1;fill:#c4eb52;fill-opacity:1;fill-rule:nonzero;stroke:none;stroke-width:1;stroke-linecap:round;stroke-linejoin:round;stroke-miterlimit:4;stroke-dasharray:none;stroke-dashoffset:0;stroke-opacity:1" transform="matrix(0.91910487,0.39401298,-0.35730784,0.93398667,0,0)"/><ellipse cx="-105.62783" cy="91.50058" id="ellipse4254" rx="17.036831" ry="21.868845" style="opacity:1;fill:#c4eb52;fill-opacity:1;fill-rule:nonzero;stroke:none;stroke-width:1;stroke-linecap:round;stroke-linejoin:round;stroke-miterlimit:4;stroke-dasharray:none;stroke-dashoffset:0;stroke-opacity:1" transform="matrix(-0.91910487,0.39401298,0.35730784,0.93398667,0,0)"/></g></clipPath><filter id="filter4384" style="color-interpolation-filters:sRGB"><feBlend id="feBlend4386" in2="BackgroundImage" mode="lighten"/></filter><clipPath clipPathUnits="userSpaceOnUse" id="clipPath4447"><path d="m 152.09469,34.277344 c -1.92767,-0.629222 -4.09292,-0.07372 -6.19336,-0.07227 -2.10224,0.0015 -4.27103,-0.551121 -6.20117,0.08008 -4.22429,1.381437 -6.23385,6.319236 -6.23633,10.763672 -0.004,6.869041 5.56846,12.4375 12.4375,12.4375 6.86904,0 12.4375,-5.568458 12.4375,-12.4375 -0.005,-4.448839 -2.0149,-9.390993 -6.24414,-10.771484 z" id="path4449" style="display:inline;opacity:1;fill:#bb0a0a;fill-opacity:1;fill-rule:nonzero;stroke:none;stroke-width:8;stroke-linecap:round;stroke-linejoin:round;stroke-miterlimit:4;stroke-dasharray:none;stroke-dashoffset:0;stroke-opacity:1;filter:url(#filter4384)"/></clipPath><clipPath clipPathUnits="userSpaceOnUse" id="clipPath4352"><path d="m 243.24414,26.527344 a 16.528621,18.738329 0 0 0 -16.52734,18.738281 16.528621,18.738329 0 0 0 0.42382,4.109375 24.57196,24.57196 0 0 0 -8.46874,18.517578 24.57196,24.57196 0 0 0 24.57226,24.572266 24.57196,24.57196 0 0 0 24.57227,-24.572266 24.57196,24.57196 0 0 0 -8.45703,-18.527344 16.528621,18.738329 0 0 0 0.41406,-4.099609 16.528621,18.738329 0 0 0 -16.5293,-18.738281 z" id="path4354" style="opacity:1;fill:#eef93d;fill-opacity:1;fill-rule:nonzero;stroke:none;stroke-width:7;stroke-linecap:round;stroke-linejoin:round;stroke-miterlimit:4;stroke-dasharray:none;stroke-dashoffset:0;stroke-opacity:1"/></clipPath><clipPath clipPathUnits="userSpaceOnUse" id="clipPath5836"><rect height="50" id="rect5838" ry="20.731707" style="opacity:1;fill:#ffd048;fill-opacity:1;fill-rule:nonzero;stroke:none;stroke-width:0.1;stroke-linecap:round;stroke-linejoin:round;stroke-miterlimit:4;stroke-dasharray:none;stroke-dashoffset:0;stroke-opacity:1" width="41.463413" x="96.166519" y="765.12787"/></clipPath><linearGradient gradientUnits="userSpaceOnUse" id="linearGradient4404" x1="71.775215" x2="49.776932" xlink:href="#linearGradient4398" y1="1028.6322" y2="982.48157"/></defs><g id="layer1" transform="translate(0,-952.36218)"><path d="m 465.66602,72.140625 c -1.34505,-0.02423 -2.35027,0.593085 -3.04883,1.199219 -0.69856,0.606134 -1.1944,1.283102 -1.61719,1.988281 -0.84558,1.410358 -1.41145,2.85102 -1.51172,4.484375 -0.25306,4.122423 -1.1654,5.49416 -2.57226,6.640625 -1.40687,1.146465 -3.87927,1.994094 -7.01563,3.525391 -5.10369,2.491824 -12.7699,5.017169 -19.80078,5.019531 -6.76017,0.0023 -11.52831,-1.135397 -18.93359,-4.951172 -6.62035,-3.411317 -12.86802,-3.963677 -16.43555,-3.617187 -1.05467,0.102428 -1.85026,0.50293 -2.55664,1.05664 -0.70638,0.553711 -1.36157,1.298581 -1.67383,2.439453 a 2.7492094,2.7492094 0 0 0 -0.0684,1.113281 c 1.27875,9.003258 6.40781,16.079028 13.31445,20.158208 7.30633,4.31522 16.76219,6.66406 26.80274,6.66406 10.53418,0 22.99887,-2.79234 31.15234,-8.17383 4.51902,-2.98266 7.51126,-6.95284 9.08985,-10.841797 1.57858,-3.888958 1.94929,-7.748172 0.25976,-10.865234 -1.28527,-2.371225 -0.88109,-3.530587 -0.22461,-4.757813 0.32824,-0.613612 0.7806,-1.183834 1.22852,-1.683594 0.22396,-0.249879 0.4429,-0.480349 0.66601,-0.724609 0.10994,-0.120355 0.26478,-0.371566 0.38868,-0.519531 a 2.7492094,2.7492094 0 0 0 0.0176,-0.02148 2.7492094,2.7492094 0 0 0 0.29688,-0.394532 c 0.0357,-0.06109 0.0491,-0.04468 0.0879,-0.117187 a 2.7492094,2.7492094 0 0 0 0.31836,-1.169922 2.7492094,2.7492094 0 0 0 0.004,-0.08789 2.7492094,2.7492094 0 0 0 -0.002,-0.11914 2.7492094,2.7492094 0 0 0 -0.004,-0.166016 c -6.8e-4,-0.0088 -0.005,-0.0147 -0.006,-0.02344 a 2.7492094,2.7492094 0 0 0 -0.20899,-0.816406 2.7492094,2.7492094 0 0 0 -0.004,-0.0078 c -0.2438,-1.011179 -0.66368,-1.890214 -1.2461,-2.603516 -0.74704,-0.914922 -1.63,-1.718058 -3.08398,-2.064453 -1.34019,-0.319288 -2.53151,-0.491946 -3.39063,-0.541016 l 0.16406,0.01367 c 0.33043,0.03872 0.20932,-0.02445 -0.38671,-0.03516 z" id="path4321" style="opacity:1;fill:#c28e00;fill-opacity:1;fill-rule:nonzero;stroke:none;stroke-width:5;stroke-linecap:round;stroke-linejoin:round;stroke-miterlimit:4;stroke-dasharray:none;stroke-dashoffset:0;stroke-opacity:1" transform="matrix(1.0003459,-0.74770489,0.74770489,1.0003459,-448.1484,1235.444)"/><path d="m 78.048964,955.24654 c -0.942232,0.015 -1.958437,0.2057 -2.995142,0.6538 -1.502077,0.64925 -2.694994,1.31481 -3.664371,1.92862 -0.0023,7.2e-4 -0.0057,10e-4 -0.0077,0.002 -0.336344,0.11084 -0.307464,0.1378 -0.34908,0.16394 -0.04161,0.0261 -0.06543,0.043 -0.09257,0.0617 -0.05429,0.0374 -0.113545,0.0812 -0.204433,0.14658 -1.749703,1.25933 -2.45788,3.04916 -2.748278,4.38374 -0.288752,1.327 -0.272087,2.55837 -0.158147,3.67402 0.342222,2.2234 0.0944,4.52864 0.526513,6.66915 0.510712,2.04598 0.616667,3.37205 0.520726,4.27574 -0.09594,0.90369 -0.348691,1.43049 -0.811948,2.13305 -0.798742,1.21135 -3.050204,2.97439 -5.841779,5.62192 -4.295351,4.07372 -11.252782,9.04621 -18.132852,11.23033 -6.781937,2.15294 -11.639807,2.52334 -20.335331,1.06074 -8.212059,-1.38132 -15.034431,0.11515 -18.8772981,1.755 -1.3229001,0.5646 -2.2682656,1.48093 -2.9257111,2.43593 -0.6627921,0.9628 -1.25789824,2.314 -1.19574228,3.9594 l 0,0 c 0.0238166,0.6107 0.17419068,1.2161 0.43972458,1.7666 3.2820655,6.8254 8.5691878,11.6903 14.6594019,14.6305 -2.236919,1.2985 -4.194856,2.6247 -5.531272,3.8418 -1.2048576,1.0972 -1.8643318,2.4195 -2.208266,3.6913 -0.3458241,1.2789 -0.4762519,2.9213 0.2005761,4.6422 l 0.00193,0 c 0.2474889,0.6249 0.6242963,1.1984 1.0993114,1.674 8.3302985,8.3712 19.2332545,11.7749 29.6274085,10.6441 10.864323,-1.1821 22.300926,-6.0158 32.533831,-13.6643 10.751792,-8.0364 21.280448,-20.2472 25.571525,-32.1674 2.395498,-6.65447 2.430592,-13.17211 1.024095,-18.53981 -1.396072,-5.32785 -4.112634,-9.93923 -8.692274,-12.05192 -1.375236,-0.63443 -1.998091,-1.19459 -2.335554,-1.67597 -0.337465,-0.48138 -0.464267,-0.97936 -0.584371,-1.77047 -0.102397,-0.67448 -0.08776,-1.47074 -0.01928,-2.23913 0.03454,-0.38761 0.0808,-0.77694 0.123431,-1.20924 0.05321,-0.53944 0.0057,-0.84795 0.0058,-0.8698 l -0.002,0.0154 c 0.02742,-0.29451 0.02751,-0.59249 0.002,-0.88716 -0.0011,-0.0129 -0.0024,-0.0257 -0.0039,-0.0386 0.01072,0.095 -0.01293,0.36038 -0.0039,0.29701 0.0091,-0.0634 0.02168,-0.37013 -0.0039,-0.53808 l 0,-0.006 c -0.112955,-0.72429 -0.39082,-1.42169 -0.804293,-2.02698 -0.02165,-0.033 -0.04314,-0.0659 -0.06558,-0.0984 -0.0088,-0.013 -0.0178,-0.0258 -0.027,-0.0386 -0.02975,-0.0404 -0.05968,-0.0801 -0.09065,-0.11958 l -0.0135,-0.0174 c -0.05474,-0.0734 -0.110989,-0.14571 -0.169718,-0.21601 -0.007,-0.008 -0.01406,-0.0155 -0.02121,-0.0231 -0.290592,-0.33318 -0.306234,-0.33846 -0.03086,-0.027 l -0.01543,-0.0174 c -0.303689,-0.33301 -0.666889,-0.60602 -1.049165,-0.84473 -1.135336,-0.92824 -2.3879,-1.60916 -3.724159,-1.94212 -0.788342,-0.19644 -1.655444,-0.35065 -2.599774,-0.33558 z" id="path4392" style="opacity:1;fill:#c28e00;fill-opacity:1;fill-rule:nonzero;stroke:none;stroke-width:5;stroke-linecap:round;stroke-linejoin:round;stroke-miterlimit:4;stroke-dasharray:none;stroke-dashoffset:0;stroke-opacity:1"/><path d="m 74.872702,965.4926 c -1.939375,0.0216 -2.684728,4.33555 -2.180452,6.35575 2.384703,9.5535 -2.31151,11.5323 -7.394164,16.35269 -4.695842,4.45356 -11.988665,9.75017 -19.857216,12.24816 -7.287997,2.3136 -13.294024,2.7439 -22.427366,1.2076 -7.247759,-1.2191 -13.480027,0.2205 -16.3818,1.4587 -0.7489216,0.3197 -1.4442253,1.2703 -1.4123105,2.1168 3.8441658,7.9959 10.5911755,12.9298 18.1808225,14.6607 8.254307,1.8823 18.249421,1.2729 28.111109,-1.8542 10.281915,-3.2603 21.914139,-10.1359 27.934346,-17.5331 6.582027,-8.08741 6.28239,-17.91638 2.827578,-21.23519 -5.451261,-5.23664 -1.20399,-10.66519 -0.979219,-11.85422 -0.876509,-0.95313 -1.840448,-1.70374 -3.139795,-1.50513 -2.120994,0.50942 -3.179021,0.0634 -3.281533,-0.41856 z" id="path4461" style="opacity:1;fill:#f0ba00;fill-opacity:1;fill-rule:nonzero;stroke:none;stroke-width:5;stroke-linecap:round;stroke-linejoin:round;stroke-miterlimit:4;stroke-dasharray:none;stroke-dashoffset:0;stroke-opacity:1"/><path d="m 75.333311,965.33991 c -1.93939,0.0217 -3.269694,3.52151 -2.632951,6.2067 2.326673,9.81172 -1.999206,11.49377 -7.08186,16.31416 -4.695857,4.45356 -11.848457,9.93779 -19.716993,12.43563 -7.28804,2.3138 -13.404803,3.1742 -22.493952,1.3952 -7.20055,-1.4095 -13.358722,0.1581 -16.3259384,1.2489 -1.3960461,0.5131 -1.8940381,1.4388 -1.8621378,2.2854 9.6211522,9.7954 25.2361522,12.4173 44.6467112,6.2625 15.313906,-4.856 25.12059,-13.2017 29.229866,-21.23396 2.737861,-5.35157 0.04427,-7.63168 -0.688264,-11.97388 -0.531762,-3.15246 -1.783817,-8.6114 0.273693,-12.48836 -1.184215,0.17838 -2.975599,0.38863 -3.348174,-0.45229 z" id="path4463" style="opacity:1;fill:#ffe43a;fill-opacity:1;fill-rule:nonzero;stroke:none;stroke-width:5;stroke-linecap:round;stroke-linejoin:round;stroke-miterlimit:4;stroke-dasharray:none;stroke-dashoffset:0;stroke-opacity:1"/><path d="m 74.185896,965.11418 c 0.514584,1.14075 2.327115,0.41198 3.555451,0.51445 1.318154,0.10995 2.251893,0.78005 3.1955,1.37587 -0.543729,-1.34191 -2.336298,-2.45724 -3.558537,-2.36615 -1.299605,0.0968 -2.621241,0.32982 -3.192414,0.47583 z" id="path4465" style="fill:#4c3400;fill-opacity:1;fill-rule:evenodd;stroke:none;stroke-width:1px;stroke-linecap:butt;stroke-linejoin:miter;stroke-opacity:1"/><path d="m 74.523587,965.54559 c -1.678049,0.49919 -2.303441,4.40772 -1.830652,6.30165 2.384705,9.55351 -2.312222,11.53445 -7.394877,16.35484 -4.695857,4.45354 -11.988294,9.75012 -19.856816,12.24802 -7.288026,2.3136 -13.295125,2.7425 -22.428424,1.2063 -7.247786,-1.2191 -13.4789411,0.2207 -16.3807428,1.4589 -0.7488938,0.3197 -1.4441399,1.2669 -1.412111,2.1135 9.6211378,9.7953 25.2563008,12.414 44.1856458,6.4117 15.313907,-4.8558 25.119891,-13.2007 29.229166,-21.23293 2.737847,-5.35152 0.04555,-7.63286 -0.686978,-11.97507 -0.53179,-3.15244 -1.783815,-8.61122 0.273721,-12.4882 -1.184242,0.17841 -2.976097,0.38853 -3.348674,-0.45242 -0.121231,9.9e-4 -0.237423,0.0204 -0.349258,0.0536 z m 0.195955,1.52671 c 0.0564,0.0276 0.09539,0.11681 0.149719,0.13923 0.458195,0.18368 0.887717,0.2365 1.303217,0.2561 0.05156,0.003 0.08854,-0.0128 0.139794,-0.0115 -1.15127,4.09844 -0.157571,8.6067 0.281275,11.20835 0.405233,2.4022 1.291436,4.13195 1.662385,5.69661 0.370877,1.56469 0.405247,2.98642 -0.844551,5.42938 -3.881592,7.58721 -13.377445,15.77653 -28.418414,20.54573 -18.259089,5.7897 -33.00048,3.3436 -42.2300364,-5.5855 6.717e-4,0 3.857e-4,0 0.00144,0 0.1316557,-0.191 0.3402329,-0.3447 0.4032189,-0.3715 2.6004231,-1.1097 8.6650375,-2.5368 15.6107165,-1.3684 9.272023,1.5597 15.624096,1.1143 23.073991,-1.2509 8.17093,-2.59394 15.573032,-7.99561 20.390034,-12.56409 2.455859,-2.32913 4.985313,-4.04307 6.699888,-6.64304 1.714591,-2.59997 2.330402,-6.03313 1.081889,-11.03487 -0.159029,-0.63678 -0.137081,-2.13258 0.165583,-3.23681 0.146678,-0.53517 0.357954,-0.96944 0.528421,-1.2034 z" id="path4467" style="opacity:1;fill:#ffffff;fill-opacity:0.25490196;fill-rule:nonzero;stroke:none;stroke-width:5;stroke-linecap:round;stroke-linejoin:round;stroke-miterlimit:4;stroke-dasharray:none;stroke-dashoffset:0;stroke-opacity:1"/><path d="m 73.986885,962.02369 c -2.118367,0.76006 -1.273131,5.78662 0.05855,7.81662 6.297096,9.5998 1.909845,13.55855 -1.805949,20.78867 -3.433064,6.67994 -9.388972,15.27282 -17.054942,21.00672 -7.100237,5.311 -13.520807,8.0639 -24.128548,9.8419 -8.417791,1.411 -14.697267,5.36 -17.402129,7.8233 -0.69813,0.6357 -1.094253,1.945 -0.732887,2.8638 7.297236,7.3329 16.597662,10.197 25.587553,9.2189 9.777183,-1.0638 20.502941,-5.5285 30.112086,-12.7109 10.018661,-7.4884 20.124682,-19.4648 23.87549,-29.8842 4.10088,-11.39185 -0.016,-22.08614 -5.083541,-24.42396 -7.996121,-3.6888 -5.430769,-11.27051 -5.642575,-12.6633 -1.32852,-0.71528 -2.674889,-1.17472 -4.023199,-0.46309 -2.129535,1.36535 -3.461709,1.27658 -3.759862,0.78554 z" id="path4301" style="opacity:1;fill:#f0ba00;fill-opacity:1;fill-rule:nonzero;stroke:none;stroke-width:5;stroke-linecap:round;stroke-linejoin:round;stroke-miterlimit:4;stroke-dasharray:none;stroke-dashoffset:0;stroke-opacity:1"/><path d="m 73.986885,962.02369 c -2.118367,0.76006 -1.273131,5.78662 0.05855,7.81662 6.297096,9.5998 1.909845,13.55855 -1.805949,20.78867 -3.433064,6.67994 -9.388972,15.27282 -17.054942,21.00672 -7.100237,5.311 -13.520807,8.0639 -24.128548,9.8419 -8.417791,1.411 -14.697267,5.36 -17.402129,7.8233 -0.69813,0.6357 -1.095224,1.9412 -0.733872,2.8599 14.325834,7.1188 32.481069,4.0628 50.925703,-9.7235 14.921823,-11.1534 22.459281,-24.0535 23.869835,-34.44582 0.939808,-6.92399 -2.892848,-8.40863 -5.369626,-12.90531 -1.798125,-3.26458 -5.275083,-8.79199 -4.513023,-13.83623 -1.229865,0.64573 -3.113279,1.55698 -3.845952,0.77375 z" id="path4296" style="opacity:1;fill:#ffe43a;fill-opacity:1;fill-rule:nonzero;stroke:none;stroke-width:5;stroke-linecap:round;stroke-linejoin:round;stroke-miterlimit:4;stroke-dasharray:none;stroke-dashoffset:0;stroke-opacity:1"/><path d="m 73.754103,962.14574 c 0.986844,1.04095 2.664494,-0.42313 4.027355,-0.77073 1.462518,-0.37301 2.722882,0.003 3.965684,0.29472 -1.094397,-1.2476 -3.4492,-1.78415 -4.732197,-1.2296 -1.364176,0.58964 -2.700493,1.3346 -3.260842,1.70561 z" id="path4303" style="fill:#4c3400;fill-opacity:1;fill-rule:evenodd;stroke:none;stroke-width:1px;stroke-linecap:butt;stroke-linejoin:miter;stroke-opacity:1"/><path d="m 73.624462,962.21448 c -1.647749,1.18597 -0.827145,5.72122 0.421239,7.62437 6.297097,9.59981 1.909917,13.56118 -1.805906,20.79128 -3.43305,6.67993 -9.388643,15.27257 -17.054584,21.00647 -7.100224,5.311 -13.522436,8.0629 -24.130177,9.8409 -8.417791,1.411 -14.695996,5.3598 -17.40083,7.823 -0.698144,0.6356 -1.095381,1.9412 -0.734028,2.8601 14.325849,7.1185 32.480655,4.0624 50.925289,-9.7241 14.921795,-11.1531 22.458881,-24.052 23.869449,-34.44424 0.939765,-6.92401 -2.891906,-8.41046 -5.368697,-12.90713 -1.798139,-3.26458 -5.274984,-8.79181 -4.512911,-13.83605 -1.229863,0.64572 -3.113863,1.55703 -3.846536,0.77379 -0.132225,0.0474 -0.252415,0.11252 -0.362338,0.19157 z m 0.803311,1.60441 c 0.07225,0.01 0.149405,0.0926 0.217874,0.0961 0.573244,0.0281 1.064596,-0.0769 1.527816,-0.21314 0.05769,-0.0169 0.09196,-0.0474 0.148919,-0.0655 0.317073,4.94375 3.144294,9.52387 4.628259,12.21804 1.3702,2.48763 3.008239,4.05361 4.018445,5.63302 1.009705,1.57981 1.595415,3.13006 1.166406,6.29083 -1.332389,9.81646 -8.589357,22.42636 -23.245199,33.38086 -17.791585,13.2983 -34.899859,16.2046 -48.462405,9.8899 3.27e-4,0 -6.43e-4,0 9.85e-4,0 0.07068,-0.26 0.240336,-0.5082 0.299008,-0.5614 2.423944,-2.2074 8.524401,-6.079 16.591335,-7.4312 10.768811,-1.8051 17.562929,-4.7062 24.820982,-10.135 7.960638,-5.9542 13.995824,-14.70409 17.517463,-21.5564 1.795411,-3.49346 3.908665,-6.33841 4.786829,-9.84824 0.878165,-3.50988 0.230254,-7.51881 -3.066599,-12.54482 -0.419783,-0.63983 -0.972252,-2.29295 -1.065895,-3.62208 -0.04541,-0.64418 0.01885,-1.20191 0.115806,-1.52388 z" id="path4309" style="opacity:1;fill:#ffffff;fill-opacity:0.25490196;fill-rule:nonzero;stroke:none;stroke-width:5;stroke-linecap:round;stroke-linejoin:round;stroke-miterlimit:4;stroke-dasharray:none;stroke-dashoffset:0;stroke-opacity:1"/><path d="m 67.618976,986.07049 c -0.664759,0.58191 -1.29025,1.11711 -2.000662,1.79089 -4.695855,4.45353 -11.846814,9.93804 -19.715351,12.43592 -7.28804,2.3138 -13.406445,3.1723 -22.495592,1.3933 -7.200551,-1.4094 -13.357368,0.1585 -16.3245829,1.2493 -1.3960472,0.5132 -1.8947951,1.439 -1.8628948,2.2854 3.2343527,3.2931 7.1602387,5.7533 11.6657797,7.364 1.426477,-7.6254 38.851562,-1.7945 50.733303,-26.51881 z" id="path5988" style="fill:#ffffff;fill-opacity:0.41830067;fill-rule:evenodd;stroke:none;stroke-width:1px;stroke-linecap:butt;stroke-linejoin:miter;stroke-opacity:1"/><path d="m 67.14306,1000.2754 c -0.661831,0.4662 -1.326392,0.9237 -1.988124,1.3902 -2.846698,3.6362 -6.200868,7.1481 -9.971953,9.9688 -7.100238,5.311 -13.519067,8.0655 -24.126806,9.8436 -8.417791,1.411 -14.696739,5.3609 -17.401601,7.8242 -0.698144,0.6356 -1.097109,1.9397 -0.735756,2.8584 3.333951,1.6568 6.884591,2.7368 10.588734,3.2844 -2.984379,-13.1289 31.939639,-7.2548 43.635506,-35.1696 z" id="path5993" style="fill:#ffffff;fill-opacity:0.39215686;fill-rule:evenodd;stroke:none;stroke-width:1px;stroke-linecap:butt;stroke-linejoin:miter;stroke-opacity:1"/></g><g id="layer2" style="display:inline;opacity:0.4;" transform="translate(0,-952.36218)"><path d="m 78.048964,955.24654 c -0.942232,0.015 -1.958437,0.2057 -2.995142,0.6538 -1.502077,0.64925 -2.694994,1.31481 -3.664371,1.92862 -0.0023,7.2e-4 -0.0057,10e-4 -0.0077,0.002 -0.336344,0.11084 -0.307464,0.1378 -0.34908,0.16394 -0.04161,0.0261 -0.06543,0.043 -0.09257,0.0617 -0.05429,0.0374 -0.113545,0.0812 -0.204433,0.14658 -1.749703,1.25933 -2.45788,3.04916 -2.748278,4.38374 -0.288752,1.327 -0.272087,2.55837 -0.158147,3.67402 0.474804,2.2234 0.05021,4.68331 0.526513,6.66915 0.510712,2.04598 0.616667,3.37205 0.520726,4.27574 -0.09594,0.90369 -0.348691,1.43049 -0.811948,2.13305 -0.798742,1.21135 -3.050204,2.97439 -5.841779,5.62192 -4.295351,4.07372 -11.252782,9.04621 -18.132852,11.23033 -6.781937,2.15294 -11.639807,2.52334 -20.335331,1.06074 -8.212059,-1.38132 -15.034431,0.11515 -18.8772981,1.755 -1.3229001,0.5646 -2.2682656,1.48093 -2.9257111,2.43593 -0.6627921,0.9628 -1.25789824,2.314 -1.19574228,3.9594 l 0,0 c 0.0238166,0.6107 0.17419068,1.2161 0.43972458,1.7666 3.2820655,6.8254 8.5691878,11.6903 14.6594019,14.6305 -2.236919,1.2985 -4.194856,2.6247 -5.531272,3.8418 -1.2048576,1.0972 -1.8643318,2.4195 -2.208266,3.6913 -0.3458241,1.2789 -0.4762519,2.9213 0.2005761,4.6422 l 0.00193,0 c 0.2474889,0.6249 0.6242963,1.1984 1.0993114,1.674 8.3302985,8.3712 19.2332545,11.7749 29.6274085,10.6441 10.864323,-1.1821 22.300926,-6.0158 32.533831,-13.6643 10.751792,-8.0364 21.280448,-20.2472 25.571525,-32.1674 2.395498,-6.65447 2.430592,-13.17211 1.024095,-18.53981 -1.396072,-5.32785 -4.112634,-9.93923 -8.692274,-12.05192 -1.375236,-0.63443 -1.998091,-1.19459 -2.335554,-1.67597 -0.337465,-0.48138 -0.464267,-0.97936 -0.584371,-1.77047 -0.102397,-0.67448 -0.08776,-1.47074 -0.01928,-2.23913 0.03454,-0.38761 0.0808,-0.77694 0.123431,-1.20924 0.05321,-0.53944 0.0057,-0.84795 0.0058,-0.8698 l -0.002,0.0154 c 0.02742,-0.29451 0.02751,-0.59249 0.002,-0.88716 -0.0011,-0.0129 -0.0024,-0.0257 -0.0039,-0.0386 0.01072,0.095 -0.01293,0.36038 -0.0039,0.29701 0.0091,-0.0634 0.02168,-0.37013 -0.0039,-0.53808 l 0,-0.006 c -0.112955,-0.72429 -0.39082,-1.42169 -0.804293,-2.02698 -0.02165,-0.033 -0.04314,-0.0659 -0.06558,-0.0984 -0.0088,-0.013 -0.0178,-0.0258 -0.027,-0.0386 -0.02975,-0.0404 -0.05968,-0.0801 -0.09065,-0.11958 l -0.0135,-0.0174 c -0.05474,-0.0734 -0.110989,-0.14571 -0.169718,-0.21601 -0.007,-0.008 -0.01406,-0.0155 -0.02121,-0.0231 -0.290592,-0.33318 -0.306234,-0.33846 -0.03086,-0.027 l -0.01543,-0.0174 c -0.303689,-0.33301 -0.666889,-0.60602 -1.049165,-0.84473 -1.135336,-0.92824 -2.3879,-1.60916 -3.724159,-1.94212 -0.788342,-0.19644 -1.655444,-0.35065 -2.599774,-0.33558 z" id="path4395" style="display:inline;opacity:1;fill:url(#linearGradient4404);fill-opacity:1;fill-rule:nonzero;stroke:none;stroke-width:5;stroke-linecap:round;stroke-linejoin:round;stroke-miterlimit:4;stroke-dasharray:none;stroke-dashoffset:0;stroke-opacity:1;filter:url(#filter4384);enable-background:new"/></g></svg>