<svg height="100" viewBox="0 0 100 100" width="100" xmlns="http://www.w3.org/2000/svg" xmlns:xlink="http://www.w3.org/1999/xlink" enable-background="new"><defs><linearGradient id="b"><stop offset="0" stop-color="#fe9292"/><stop offset="1" stop-color="#d9ff98"/></linearGradient><filter id="a" color-interpolation-filters="sRGB"><feBlend in2="BackgroundImage" mode="lighten"/></filter><linearGradient gradientTransform="matrix(1 0 0 1 0 -.7)" gradientUnits="userSpaceOnUse" id="c" x1="67.235" x2="37.466" xlink:href="#b" y1="1045.683" y2="969.786"/></defs><path d="M47.905 9.948c-13.048.054-26.023 7.343-33.457 20.656-7.73 13.847-7.444 29.816-.264 41.67 6.355 11.78 19.258 19.674 33.734 19.674 10.79 0 21.19-2.957 29.156-9.35 7.976-6.402 13.234-16.328 13.632-28.884.328-10.368-3.798-20.34-10.016-28.06a.967.972 0 0 0-.062-.07C70.608 15.37 60.306 9.965 47.91 9.947a.967.972 0 0 0-.005 0z" fill="#e96e00"/><path d="M85.732 53.25c-.72 22.725-18.252 33.7-38.126 33.7-18.564 0-33.17-13.892-33.17-32.397 0-18.506 19.225-37.888 37.958-39.147C68.53 14.32 86.35 33.784 85.732 53.25z" fill="#fd9500"/><path d="M62.728 18.42c-14.81-8.843-34.503-2.912-44.212 14.477-9.7 17.374-5.166 38.106 9.66 46.956 14.81 8.843 33.317 2.025 42.97-15.262C80.79 47.32 77.55 27.27 62.728 18.42z" fill="#ffc770"/><path d="M69.838 63.696C60.474 80.466 42.842 86.962 28.5 78.4c-14.342-8.563-18.695-28.46-9.33-45.232 9.363-16.77 28.264-22.468 42.606-13.906 14.342 8.562 17.426 27.664 8.062 44.434z" fill="#ffe6d3"/><path d="M41.712 77.59c1.2 1.807 15.314-3.786 15.512-6.145.197-2.36-11.925-20.617-13.32-20.064-1.397.555-3.39 24.406-2.192 26.21zm-21.68-12.92c-2.112-.17-4.485-15.607-2.608-16.963 1.878-1.356 23.23.37 23.464 1.897.235 1.527-18.744 15.237-20.856 15.067zm25.297-45.5c-1.2-1.806-15.316 3.788-15.513 6.146-.197 2.36 11.925 20.617 13.32 20.064 1.397-.554 3.39-24.405 2.192-26.21zm21.93 13.092c2.11.17 4.484 15.608 2.607 16.964-1.877 1.356-23.23-.37-23.464-1.897C46.168 45.8 65.147 32.09 67.26 32.26zm2.16 21.14c1.3 1.717-6.666 15.982-8.752 15.677-2.087-.306-15.218-17.656-14.43-19.067.787-1.41 21.884 1.674 23.183 3.39zm-42.885-25.6c-2.086-.306-10.05 13.96-8.753 15.675 1.3 1.716 22.396 4.8 23.183 3.39.788-1.412-12.343-18.76-14.43-19.066zm37.714-.196c.5-2.34-11.7-9.622-13.408-8.003-1.708 1.62-6.782 25.272-5.575 25.992 1.207.72 18.48-15.65 18.982-17.99zm-27.98 50.11c-1.71 1.62-13.91-5.663-13.407-8.003.502-2.34 17.775-18.71 18.982-17.99 1.206.722-3.867 24.375-5.576 25.994z" fill="#ffa82d"/><path d="M44.325 18.818c-3.507-.106-14.335 4.436-14.507 6.5-.197 2.358 11.925 20.615 13.32 20.062 1.397-.554 3.39-24.404 2.19-26.21-.15-.225-.502-.336-1.003-.352zm7.605.567c-.496-.05-.873.016-1.087.218-1.708 1.62-6.784 25.27-5.577 25.992 1.207.72 18.482-15.65 18.984-17.988.44-2.047-8.847-7.88-12.32-8.222zm-8.597 1.94c.037.692.058 1.53.04 2.588-.037 2.417-.215 5.55-.473 8.637-.257 3.084-.6 6.135-.95 8.388-1.22-1.562-2.686-3.593-4.143-5.79-1.563-2.352-3.08-4.803-4.165-6.757-.543-.975-.98-1.835-1.245-2.444-.025-.06-.02-.087-.04-.145.174-.138.29-.25.568-.43.922-.603 2.318-1.327 3.817-1.98 1.5-.653 3.114-1.247 4.51-1.657.968-.283 1.503-.33 2.08-.408zm8.908.63c1 .254 3.742 1.348 6.058 2.854 1.26.82 2.4 1.7 3.09 2.37.147.143.17.192.27.307-.086.156-.005-.017-.14.16-.458.585-1.148 1.38-1.975 2.276-1.656 1.794-3.874 4.014-6.11 6.133-2.02 1.913-3.974 3.64-5.62 5.018.33-2.18.812-4.845 1.414-7.647.657-3.063 1.405-6.16 2.08-8.542.34-1.19.662-2.208.925-2.912.003-.008.007-.01.01-.017zM26.536 27.8c-2.086-.305-10.05 13.96-8.752 15.676 1.3 1.716 22.394 4.8 23.182 3.39.788-1.412-12.343-18.76-14.43-19.066zm-.026 2.86c.433.413.933.916 1.547 1.604 1.448 1.62 3.236 3.826 4.93 6.062 1.69 2.236 3.296 4.513 4.392 6.252.07.115.087.164.155.274-.09-.005-.122.003-.214-.003-1.997-.112-4.706-.413-7.422-.81-2.716-.397-5.454-.895-7.53-1.38-.914-.214-1.624-.42-2.19-.604.086-.307.136-.546.296-.967.534-1.41 1.435-3.278 2.436-5.07 1.002-1.795 2.115-3.536 3.025-4.714.238-.31.38-.432.574-.648zm40.75 1.6c-2.112-.17-21.09 13.543-20.856 15.07.235 1.526 21.585 3.25 23.462 1.895 1.877-1.356-.495-16.793-2.607-16.964zm-.822 2.82c.07.176.114.228.184.443.427 1.3.852 3.203 1.148 5.13.296 1.93.47 3.91.462 5.362-.003.555-.05.917-.095 1.253-.02 0-.027.016-.05.016-.634.066-1.565.104-2.65.107-2.174 0-4.983-.126-7.733-.348-2.626-.212-5.15-.514-7.077-.833.054-.047.07-.07.126-.117 1.71-1.438 4.096-3.27 6.55-5.043 2.455-1.773 4.99-3.496 6.99-4.737.862-.535 1.555-.92 2.144-1.232zM21.85 47.216c-2.27 0-3.955.15-4.425.49-1.877 1.355.495 16.792 2.607 16.963 2.112.17 21.09-13.54 20.855-15.066-.176-1.145-12.228-2.402-19.037-2.387zm.005 2.328c3.26 0 7.94.3 11.733.743 1.225.144 2.086.31 3.042.472-.04.034-.052.05-.093.083-1.708 1.437-4.095 3.267-6.55 5.04-2.454 1.773-4.988 3.497-6.99 4.738-.86.535-1.554.922-2.144 1.232-.07-.177-.114-.23-.184-.444-.428-1.3-.853-3.203-1.15-5.13-.295-1.93-.468-3.91-.46-5.362.002-.555.05-.917.094-1.253.02 0 .025-.015.046-.015.635-.066 1.568-.103 2.655-.106zm26.703.11c-1.312-.016-2.172.092-2.32.358-.788 1.41 12.343 18.76 14.43 19.066 2.086.303 10.05-13.962 8.753-15.678-1.055-1.394-15.18-3.692-20.862-3.748zm-4.656 1.724c-1.396.552-3.39 24.405-2.19 26.21 1.198 1.807 15.314-3.788 15.51-6.146.198-2.36-11.924-20.618-13.32-20.065zm-2.218.324c-2.11.308-18.336 15.74-18.822 18.007-.502 2.34 11.7 9.625 13.408 8.006 1.708-1.62 6.782-25.272 5.575-25.992-.038-.022-.092-.03-.16-.02zm7.985.323h.21c2.997.167 7.576.76 11.427 1.463 1.926.352 3.685.734 4.946 1.083.338.094.516.167.77.25-.086.308-.135.544-.294.964-.535 1.407-1.436 3.276-2.437 5.07-1 1.793-2.115 3.534-3.025 4.713-.237.308-.38.43-.573.647-.434-.414-.934-.917-1.55-1.605-1.446-1.62-3.235-3.826-4.927-6.062-1.692-2.235-3.298-4.513-4.394-6.252-.072-.116-.088-.164-.155-.274zm-4.58 3.794c1.22 1.563 2.686 3.596 4.144 5.792 1.562 2.354 3.08 4.804 4.164 6.758.543.977.98 1.836 1.245 2.446.025.057.02.083.04.14-.255.202-.53.425-.993.703-1.203.727-2.94 1.56-4.697 2.255-1.757.696-3.558 1.265-4.843 1.53-.207.043-.265.03-.44.056-.04-.696-.062-1.567-.044-2.65.038-2.418.216-5.552.474-8.64.258-3.084.6-6.134.95-8.387zm-5.79.424c-.33 2.18-.812 4.845-1.413 7.647-.657 3.064-1.408 6.164-2.084 8.546-.338 1.19-.658 2.205-.92 2.91-.02.05-.04.067-.062.115-.222-.054-.354-.065-.66-.175-1.157-.413-2.74-1.19-4.24-2.086-1.5-.896-2.944-1.926-3.873-2.76-.297-.265-.418-.426-.586-.618.084-.15.005.017.134-.15.457-.585 1.147-1.38 1.975-2.276 1.654-1.794 3.873-4.014 6.108-6.133 2.02-1.913 3.974-3.64 5.622-5.018z" fill="#fff" fill-opacity=".209"/><path d="M47.426 15.316c-10.872.027-21.82 6.322-28.258 17.852-5.266 9.43-6.194 19.852-3.447 28.69 6.3-17.83 30.954-27.73 59.378-19.864-.59-9.425-5.09-17.82-13.32-22.733-4.483-2.675-9.41-3.956-14.352-3.944z" fill="#fff" fill-opacity=".392" fill-rule="evenodd"/><g opacity=".4"><path d="M47.905 962.31c-13.048.054-26.023 7.343-33.457 20.656-7.73 13.847-7.444 29.816-.264 41.67 6.355 11.78 19.258 19.675 33.734 19.675 10.79 0 21.19-2.957 29.156-9.35 7.976-6.4 13.234-16.328 13.632-28.884.328-10.368-3.798-20.338-10.016-28.06a.967.972 0 0 0-.062-.07c-10.02-10.214-20.322-15.618-32.718-15.635a.967.972 0 0 0-.005 0z" fill="url(#c)" enable-background="new" transform="translate(0 -952.4)"/></g></svg>