<svg height="100" viewBox="0 0 100 100" width="100" xmlns="http://www.w3.org/2000/svg" xmlns:xlink="http://www.w3.org/1999/xlink" enable-background="new"><defs><linearGradient id="b"><stop offset="0" stop-color="#ffbf3e"/><stop offset="1" stop-color="#cdffdd"/></linearGradient><filter id="a" color-interpolation-filters="sRGB"><feBlend in2="BackgroundImage" mode="lighten"/></filter><clipPath id="c"><rect height="50" ry="20.732" width="41.463" x="96.167" y="765.128" fill="#ffd048" stroke-width=".1" stroke-linecap="round" stroke-linejoin="round"/></clipPath><linearGradient gradientTransform="matrix(1.2 0 0 1.2 -99.1 844.4)" gradientUnits="userSpaceOnUse" id="d" x1="120.293" x2="120.293" xlink:href="#b" y1="164.284" y2="88.264"/></defs><g transform="translate(0 -952.4)"><path d="M50.665 953.738c-2.588.013-4.165 1.77-5.065 3.223-.9 1.454-1.48 3.09-1.977 5.008-.24.93-.363 2.088-.548 3.135-.675-.8-1.353-1.73-2.018-2.404-1.385-1.407-2.703-2.533-4.208-3.338-1.506-.805-3.75-1.536-5.992-.255a3.884 3.878 0 0 0-.024.015c-2.137 1.24-2.68 3.448-2.77 5.084-.09 1.636.18 3.244.645 5.036.22.857.644 1.848.963 2.773-.84-.278-1.746-.66-2.527-.858-1.76-.443-3.342-.698-4.958-.598-1.616.1-3.796.658-5.02 2.76a3.884 3.878 0 0 0-.007.013c-1.31 2.274-.545 4.547.286 6.068.83 1.523 1.992 2.86 3.444 4.27 2.097 2.034 4.854 4.15 7.897 6.138-4.94 5.24-7.972 12.288-7.972 20.044v10.62c0 16.154 13.132 29.266 29.31 29.266 16.177 0 29.31-13.112 29.31-29.265v-10.62c0-7.38-2.748-14.122-7.27-19.272 3.528-2.206 6.75-4.607 9.124-6.91 1.452-1.41 2.612-2.747 3.444-4.27.83-1.52 1.597-3.793.285-6.067a3.884 3.878 0 0 0-.01-.015c-1.266-2.17-3.516-2.693-5.18-2.768-1.666-.076-3.314.212-5.152.7-.867.23-1.87.664-2.804.99.328-.934.763-1.937.993-2.803.488-1.836.775-3.482.7-5.146-.078-1.662-.605-3.914-2.784-5.173a3.884 3.878 0 0 0-.007-.002c-2.277-1.31-4.55-.545-6.073.284-1.524.83-2.868 1.986-4.28 3.436-.687.706-1.387 1.678-2.085 2.518-.185-1.077-.306-2.27-.548-3.225-.496-1.962-1.08-3.633-1.984-5.112-.904-1.48-2.492-3.28-5.12-3.28a3.884 3.878 0 0 0-.018 0h-.003z" fill="#905d2b"/><path d="M50.684 957.616a4.724 18.658 0 0 0-4.717 18.234 18.665 4.722 59.956 0 0-13.182-13.376 18.665 4.722 59.956 0 0 4.398 16.99 18.68 4.718 29.957 0 0-16.657-4.195 18.68 4.718 29.957 0 0 13.822 13.41 18.68 4.718 29.957 0 0 15.463 6.057 18.665 4.722 59.956 0 0 1.002.206 4.722 18.665 30.044 0 0 .93-.175 4.718 18.68 60.043 0 0 16.09-6.087 4.718 18.68 60.043 0 0 13.822-13.41 4.718 18.68 60.043 0 0-17.45 4.628 4.722 18.665 30.044 0 0 4.635-17.424 4.722 18.665 30.044 0 0-13.432 13.796 4.724 18.658 0 0 0-4.724-18.654z" fill="#38974e"/><path d="M50.685 957.617a4.724 18.658 0 0 0-4.718 18.233 18.665 4.722 59.956 0 0-13.18-13.377 18.665 4.722 59.956 0 0 4.395 16.99 18.68 4.718 29.957 0 0-16.657-4.194 18.68 4.718 29.957 0 0 13.824 13.41 18.68 4.718 29.957 0 0 15.46 6.057 18.665 4.722 59.956 0 0 1 .207 4.722 18.665 30.044 0 0 .93-.175 4.718 18.68 60.043 0 0 16.09-6.09 4.718 18.68 60.043 0 0 13.825-13.41 4.718 18.68 60.043 0 0-17.45 4.63 4.722 18.665 30.044 0 0 4.634-17.427 4.722 18.665 30.044 0 0-13.433 13.798 4.724 18.658 0 0 0-4.722-18.653zm.136 1.784c.034 0-.05.102-.135.198.072.08.136.137.28.372.417.684.914 1.932 1.324 3.55.818 3.238 1.327 7.986 1.328 12.75a1.79 1.786 0 0 0 3.337.895c2.387-4.127 5.207-7.986 7.54-10.38 1.164-1.197 2.22-2.03 2.925-2.414.24-.13.32-.144.428-.18-.047-.22-.083-.27.095-.17.175.102.11.106-.095.17.02.098.04.142.05.36.034.722-.12 1.944-.515 3.433-.792 2.978-2.533 7.07-4.744 11.05a1.79 1.786 0 0 0 2.433 2.43c3.984-2.208 8.08-3.946 11.063-4.738 1.492-.396 2.714-.55 3.437-.518.222.01.268.03.363.05.063-.197.07-.257.163-.09.096.16.045.13-.164.09-.034.104-.05.19-.183.432-.384.702-1.217 1.756-2.417 2.92-2.4 2.328-6.265 5.144-10.398 7.527v-.002c-6.014 3.464-12.62 5.804-15.226 5.848a1.79 1.786 0 0 0-.58.107c-.186.067-.285.067-.272.068a1.79 1.786 0 0 0-.09 0c.012 0-.105-.003-.317-.085a1.79 1.786 0 0 0-.49-.112c-2.913-.25-9.065-2.566-14.72-5.825v.002c-4.135-2.383-8-5.198-10.4-7.527-1.2-1.164-2.032-2.218-2.417-2.92-.133-.245-.148-.332-.182-.436-.22.043-.262.077-.163-.085.093-.165.1-.108.164.084.085-.017.11-.03.294-.04.667-.042 1.813.084 3.22.44 2.815.708 6.71 2.307 10.575 4.386a1.79 1.786 0 0 0 2.42-2.428c-2.142-3.916-3.806-7.898-4.553-10.784-.373-1.443-.51-2.623-.472-3.313.01-.2.03-.234.046-.323-.197-.064-.257-.07-.092-.16.162-.098.134-.053.092.16.1.032.17.044.397.165.682.364 1.707 1.163 2.844 2.316 2.274 2.308 5.038 6.043 7.41 10.082a1.79 1.786 0 0 0 3.332-.895c.027-4.692.546-9.324 1.36-12.473.408-1.574.9-2.784 1.308-3.444.136-.218.19-.266.26-.345-.135-.15-.183-.187.003-.184.07 0 .114-.012.134-.013z" fill="#fff" fill-opacity=".145"/><rect height="62.219" ry="25.798" width="51.676" x="24.287" y="984.052" fill="#ffcb34"/><g clip-path="url(#c)" transform="matrix(1.2 0 0 1.2 -95.6 31.9)" fill="#905d2b" color="#000" font-family="sans-serif" white-space="normal" fill-rule="evenodd"><path d="M116.846 771.81c-.302.005-.608.032-.914.08-1.225.19-2.47.734-3.633 1.773-2.46 2.197-3.924 3.056-5.12 3.033-1.196-.023-2.665-.955-5.086-3.125-1.447-1.295-3.158-1.693-4.72-1.49-1.564.205-2.992.938-4.224 1.784-2.463 1.692-4.205 3.932-4.205 3.932l1.54 1.21s1.625-2.052 3.775-3.53c1.075-.737 2.263-1.31 3.367-1.454 1.104-.144 2.108.065 3.16 1.008 2.49 2.232 4.276 3.583 6.356 3.623 2.08.04 3.915-1.256 6.46-3.53 1.842-1.643 3.478-1.634 5.208-1.038 1.583.545 3.123 1.68 4.4 2.648.613.49 1.255.987 1.99 1.383.88.472 1.943.764 3.11.56 1.164-.207 2.367-.864 3.702-2.054 2.405-2.144 3.796-2.857 5.033-2.74 1.237.117 2.81 1.2 5.305 3.4 1.444 1.275 3.108 1.675 4.61 1.465 1.504-.21 2.843-.952 3.977-1.803 2.27-1.7 3.803-3.937 3.803-3.937l-1.61-1.117s-1.424 2.03-3.368 3.488c-.972.728-2.054 1.287-3.073 1.43-1.02.142-1.978-.052-3.045-.995-2.542-2.243-4.324-3.685-6.415-3.882-2.09-.197-4 .982-6.52 3.23-1.166 1.037-2.06 1.465-2.74 1.585-.684.12-1.217-.018-1.84-.353-1.22-.655-2.537-2.19-4.464-3.094-.694-.41-1.424-.79-2.22-1.065-.814-.28-1.694-.44-2.6-.424zM116.846 781.697c-.302.006-.608.032-.914.08-1.225.19-2.47.735-3.633 1.774-2.46 2.197-3.924 3.057-5.12 3.034-1.196-.023-2.665-.955-5.086-3.125-1.447-1.298-3.158-1.696-4.72-1.49-1.564.203-2.992.936-4.224 1.782-2.463 1.692-4.205 3.93-4.205 3.93l1.54 1.21s1.625-2.05 3.775-3.527c1.075-.738 2.263-1.31 3.367-1.455 1.104-.144 2.108.065 3.16 1.008 2.49 2.232 4.276 3.582 6.356 3.623 2.08.04 3.915-1.255 6.46-3.53 1.842-1.643 3.478-1.633 5.208-1.038 1.583.545 3.123 1.68 4.4 2.65.613.49 1.255.986 1.99 1.382.88.472 1.943.764 3.11.558 1.164-.205 2.367-.862 3.702-2.052 2.405-2.144 3.796-2.858 5.033-2.74 1.237.116 2.81 1.2 5.305 3.4 1.444 1.274 3.108 1.675 4.61 1.465 1.504-.21 2.843-.953 3.977-1.803 2.27-1.7 3.803-3.938 3.803-3.938l-1.61-1.117s-1.424 2.03-3.368 3.488c-.972.73-2.054 1.288-3.073 1.43-1.02.143-1.978-.052-3.045-.994-2.542-2.242-4.324-3.684-6.415-3.882-2.09-.198-4 .982-6.52 3.23-1.166 1.037-2.06 1.464-2.74 1.585-.684.12-1.217-.018-1.84-.354-1.22-.656-2.537-2.19-4.464-3.095-.694-.408-1.424-.79-2.22-1.064-.814-.28-1.694-.44-2.6-.423zM116.846 792.3c-.302.007-.608.033-.914.08-1.225.192-2.47.735-3.633 1.774-2.46 2.197-3.924 3.057-5.12 3.033-1.196-.023-2.665-.955-5.086-3.125-1.447-1.296-3.158-1.694-4.72-1.49-1.564.204-2.992.937-4.224 1.783-2.463 1.693-4.205 3.932-4.205 3.932l1.54 1.21s1.625-2.05 3.775-3.528c1.075-.74 2.263-1.312 3.367-1.457 1.104-.144 2.108.065 3.16 1.008 2.49 2.234 4.276 3.584 6.356 3.624 2.08.04 3.915-1.255 6.46-3.53 1.842-1.643 3.478-1.633 5.208-1.038 1.583.545 3.123 1.68 4.4 2.648.613.49 1.255.987 1.99 1.383.88.472 1.943.764 3.11.56 1.164-.207 2.367-.864 3.702-2.054 2.405-2.144 3.796-2.857 5.033-2.74 1.237.117 2.81 1.2 5.305 3.4 1.444 1.275 3.108 1.675 4.61 1.465 1.504-.21 2.843-.952 3.977-1.803 2.27-1.7 3.803-3.937 3.803-3.937l-1.61-1.117s-1.424 2.032-3.368 3.49c-.972.728-2.054 1.286-3.073 1.43-1.02.14-1.978-.053-3.045-.995-2.542-2.244-4.324-3.685-6.415-3.883-2.09-.198-4 .982-6.52 3.228-1.166 1.038-2.06 1.466-2.74 1.586-.684.12-1.217-.018-1.84-.353-1.22-.655-2.537-2.19-4.464-3.094-.694-.41-1.424-.792-2.22-1.066-.814-.28-1.694-.44-2.6-.423zM116.846 802.176c-.302.006-.608.032-.914.08-1.225.19-2.47.734-3.633 1.773-2.46 2.196-3.924 3.056-5.12 3.032-1.196-.023-2.665-.955-5.086-3.125-1.447-1.296-3.158-1.694-4.72-1.49-1.564.204-2.992.937-4.224 1.783-2.463 1.693-4.205 3.932-4.205 3.932l1.54 1.21s1.625-2.05 3.775-3.528c1.075-.74 2.263-1.31 3.367-1.456 1.104-.144 2.108.065 3.16 1.008 2.49 2.233 4.276 3.583 6.356 3.623 2.08.04 3.915-1.256 6.46-3.53 1.842-1.644 3.478-1.634 5.208-1.04 1.583.546 3.123 1.68 4.4 2.65.613.49 1.255.986 1.99 1.382.88.472 1.943.764 3.11.56 1.164-.207 2.367-.864 3.702-2.054 2.405-2.144 3.796-2.857 5.033-2.74 1.237.117 2.81 1.2 5.305 3.4 1.444 1.275 3.108 1.675 4.61 1.465 1.504-.21 2.843-.952 3.977-1.803 2.27-1.7 3.803-3.937 3.803-3.937l-1.61-1.117s-1.424 2.03-3.368 3.488c-.972.73-2.054 1.287-3.073 1.43-1.02.142-1.978-.052-3.045-.994-2.542-2.244-4.324-3.685-6.415-3.883-2.09-.198-4 .982-6.52 3.228-1.166 1.038-2.06 1.466-2.74 1.586-.684.122-1.217-.017-1.84-.352-1.22-.655-2.537-2.19-4.464-3.094-.694-.408-1.424-.79-2.22-1.065-.814-.28-1.694-.442-2.6-.424z" style="line-height:normal;text-indent:0;text-align:start;text-decoration-line:none;text-decoration-style:solid;text-decoration-color:#000000;text-transform:none;block-progression:tb;isolation:auto;mix-blend-mode:normal" overflow="visible" solid-color="#000000" enable-background="accumulate"/></g><path d="M50.125 984.053c-14.314 0-25.84 11.504-25.84 25.796v10.623c0 14.292 11.526 25.8 25.84 25.8s25.838-11.508 25.838-25.8v-10.624c0-14.293-11.524-25.797-25.838-25.797zm0 2.435c13.005 0 23.4 10.38 23.4 23.364v10.62c0 12.986-10.395 23.364-23.4 23.364-13.005 0-23.4-10.378-23.4-23.363v-10.62c0-12.986 10.395-23.365 23.4-23.365z" fill="#fff" fill-opacity=".307"/><path d="M50.125 984.053c-14.314 0-25.84 11.504-25.84 25.796v10.623c0 .458.014.913.037 1.366 10.146-17.793 29.293-26.003 50.838-18.424-2.848-11.16-12.947-19.363-25.035-19.363z" fill="#fff" fill-opacity=".329" fill-rule="evenodd"/></g><path d="M50.665 953.74c-2.588.012-4.166 1.77-5.066 3.222-.9 1.453-1.482 3.09-1.978 5.006-.24.93-.363 2.088-.548 3.135-.674-.8-1.352-1.73-2.016-2.403-1.386-1.407-2.704-2.532-4.21-3.337-1.505-.805-3.747-1.537-5.99-.257a3.884 3.878 0 0 0-.025.016c-2.137 1.24-2.68 3.447-2.768 5.083-.09 1.636.18 3.244.644 5.036.22.858.644 1.85.963 2.775-.84-.278-1.747-.662-2.527-.86-1.76-.442-3.342-.696-4.958-.596-1.616.098-3.797.66-5.02 2.76a3.884 3.878 0 0 0-.008.012c-1.312 2.275-.545 4.548.287 6.07.83 1.52 1.99 2.858 3.444 4.267 2.098 2.034 4.855 4.15 7.897 6.14-4.938 5.238-7.973 12.286-7.973 20.04v10.622c0 16.153 13.133 29.266 29.31 29.266 16.18 0 29.31-13.113 29.31-29.266v-10.62c0-7.38-2.748-14.12-7.268-19.27 3.526-2.208 6.75-4.61 9.123-6.913 1.452-1.41 2.612-2.747 3.443-4.268.83-1.522 1.597-3.795.285-6.07a3.884 3.878 0 0 0-.008-.013c-1.265-2.172-3.516-2.696-5.18-2.77-1.666-.077-3.314.213-5.15.7-.868.23-1.87.663-2.805.99.328-.935.76-1.936.992-2.803.488-1.835.775-3.482.698-5.146-.076-1.662-.603-3.915-2.782-5.174a3.884 3.878 0 0 0-.007-.002c-2.278-1.31-4.55-.545-6.073.284-1.524.83-2.867 1.99-4.278 3.44-.688.705-1.39 1.675-2.087 2.516-.184-1.077-.306-2.27-.548-3.225-.496-1.96-1.08-3.634-1.983-5.113-.904-1.48-2.493-3.278-5.122-3.278a3.884 3.878 0 0 0-.018 0h-.002z" fill="url(#d)" enable-background="new" transform="translate(0 -952.4)" opacity=".4"/></svg>